<mxfile host="app.diagrams.net" agent="Mozilla/5.0 (Windows NT 10.0; Win64; x64) AppleWebKit/537.36 (KHTML, like Gecko) Chrome/140.0.0.0 Safari/537.36" version="28.2.5">
  <diagram id="tRNwdBl0BCOhKkNiruVG" name="ページ1">
    <mxGraphModel dx="786" dy="417" grid="1" gridSize="10" guides="1" tooltips="1" connect="1" arrows="1" fold="1" page="1" pageScale="1" pageWidth="827" pageHeight="1169" math="0" shadow="0">
      <root>
        <mxCell id="0" />
        <mxCell id="1" parent="0" />
        <mxCell id="ODEPzS9x_N9bXQIloqpd-13" value="&lt;span style=&quot;color: rgb(36, 36, 36); font-family: &amp;quot;Yu Gothic&amp;quot;, &amp;quot;Meiryo UI&amp;quot;, &amp;quot;MS UI Gothic&amp;quot;, &amp;quot;MS PGothic&amp;quot;, &amp;quot;ＭＳ Ｐゴシック&amp;quot;, &amp;quot;MS Gothic&amp;quot;, &amp;quot;ＭＳ ゴシック&amp;quot;, Calibri, &amp;quot;sans-serif&amp;quot;, &amp;quot;Mongolian Baiti&amp;quot;, &amp;quot;Microsoft Yi Baiti&amp;quot;, &amp;quot;Javanese Text&amp;quot;; font-size: 14.6667px; text-align: left; white-space: pre-wrap; background-color: rgb(255, 255, 255);&quot;&gt;事務職員&lt;/span&gt;" style="shape=umlActor;verticalLabelPosition=bottom;verticalAlign=top;html=1;" parent="1" vertex="1">
          <mxGeometry x="30" y="150" width="30" height="60" as="geometry" />
        </mxCell>
        <mxCell id="ODEPzS9x_N9bXQIloqpd-17" value="&lt;span style=&quot;color: rgb(36, 36, 36); font-family: &amp;quot;Yu Gothic&amp;quot;, &amp;quot;Meiryo UI&amp;quot;, &amp;quot;MS UI Gothic&amp;quot;, &amp;quot;MS PGothic&amp;quot;, &amp;quot;ＭＳ Ｐゴシック&amp;quot;, &amp;quot;MS Gothic&amp;quot;, &amp;quot;ＭＳ ゴシック&amp;quot;, Calibri, &amp;quot;sans-serif&amp;quot;, &amp;quot;Mongolian Baiti&amp;quot;, &amp;quot;Microsoft Yi Baiti&amp;quot;, &amp;quot;Javanese Text&amp;quot;; font-size: 14.6667px; text-align: left; white-space-collapse: preserve;&quot;&gt;貸出メニュー&lt;/span&gt;" style="shape=umlBoundary;whiteSpace=wrap;html=1;fillColor=#d5e8d4;strokeColor=#82b366;" parent="1" vertex="1">
          <mxGeometry x="130" y="80" width="100" height="80" as="geometry" />
        </mxCell>
        <mxCell id="ODEPzS9x_N9bXQIloqpd-18" value="&lt;span style=&quot;font-family: &amp;quot;Yu Gothic&amp;quot;, &amp;quot;Meiryo UI&amp;quot;, &amp;quot;MS UI Gothic&amp;quot;, &amp;quot;MS PGothic&amp;quot;, &amp;quot;ＭＳ Ｐゴシック&amp;quot;, &amp;quot;MS Gothic&amp;quot;, &amp;quot;ＭＳ ゴシック&amp;quot;, Calibri, &amp;quot;sans-serif&amp;quot;, &amp;quot;Mongolian Baiti&amp;quot;, &amp;quot;Microsoft Yi Baiti&amp;quot;, &amp;quot;Javanese Text&amp;quot;; font-size: 14.6667px; text-align: left; white-space-collapse: preserve;&quot;&gt;会員番号を入力&lt;/span&gt;" style="shape=umlBoundary;whiteSpace=wrap;html=1;fillColor=#d5e8d4;strokeColor=#82b366;fontColor=default;labelBackgroundColor=none;" parent="1" vertex="1">
          <mxGeometry x="130" y="190" width="100" height="80" as="geometry" />
        </mxCell>
        <mxCell id="ODEPzS9x_N9bXQIloqpd-19" value="&lt;span style=&quot;color: rgb(36, 36, 36); font-family: &amp;quot;Yu Gothic&amp;quot;, &amp;quot;Meiryo UI&amp;quot;, &amp;quot;MS UI Gothic&amp;quot;, &amp;quot;MS PGothic&amp;quot;, &amp;quot;ＭＳ Ｐゴシック&amp;quot;, &amp;quot;MS Gothic&amp;quot;, &amp;quot;ＭＳ ゴシック&amp;quot;, Calibri, &amp;quot;sans-serif&amp;quot;, &amp;quot;Mongolian Baiti&amp;quot;, &amp;quot;Microsoft Yi Baiti&amp;quot;, &amp;quot;Javanese Text&amp;quot;; font-size: 14.6667px; text-align: left; white-space-collapse: preserve;&quot;&gt;図書貸出画面&lt;/span&gt;" style="ellipse;shape=umlControl;whiteSpace=wrap;html=1;fillColor=#f8cecc;strokeColor=#b85450;labelBackgroundColor=none;" parent="1" vertex="1">
          <mxGeometry x="330" y="60" width="70" height="80" as="geometry" />
        </mxCell>
        <mxCell id="ODEPzS9x_N9bXQIloqpd-20" value="&lt;span style=&quot;color: rgb(36, 36, 36); font-family: &amp;quot;Yu Gothic&amp;quot;, &amp;quot;Meiryo UI&amp;quot;, &amp;quot;MS UI Gothic&amp;quot;, &amp;quot;MS PGothic&amp;quot;, &amp;quot;ＭＳ Ｐゴシック&amp;quot;, &amp;quot;MS Gothic&amp;quot;, &amp;quot;ＭＳ ゴシック&amp;quot;, Calibri, &amp;quot;sans-serif&amp;quot;, &amp;quot;Mongolian Baiti&amp;quot;, &amp;quot;Microsoft Yi Baiti&amp;quot;, &amp;quot;Javanese Text&amp;quot;; text-align: left; white-space-collapse: preserve;&quot;&gt;&lt;font style=&quot;font-size: 12px;&quot;&gt;会員の氏名、会員種別を表示&lt;/font&gt;&lt;/span&gt;" style="ellipse;shape=umlControl;whiteSpace=wrap;html=1;fillColor=#f8cecc;strokeColor=#b85450;labelBackgroundColor=none;" parent="1" vertex="1">
          <mxGeometry x="430" y="160" width="90" height="100" as="geometry" />
        </mxCell>
        <mxCell id="W3DtqNC9jMBDCoc1uVoA-1" value="&lt;span style=&quot;color: rgb(36, 36, 36); font-family: &amp;quot;Yu Gothic&amp;quot;, &amp;quot;Meiryo UI&amp;quot;, &amp;quot;MS UI Gothic&amp;quot;, &amp;quot;MS PGothic&amp;quot;, &amp;quot;ＭＳ Ｐゴシック&amp;quot;, &amp;quot;MS Gothic&amp;quot;, &amp;quot;ＭＳ ゴシック&amp;quot;, Calibri, &amp;quot;sans-serif&amp;quot;, &amp;quot;Mongolian Baiti&amp;quot;, &amp;quot;Microsoft Yi Baiti&amp;quot;, &amp;quot;Javanese Text&amp;quot;; font-size: 14.6667px; text-align: left; white-space-collapse: preserve;&quot;&gt;管理番号を入力&lt;/span&gt;" style="shape=umlBoundary;whiteSpace=wrap;html=1;fillColor=#d5e8d4;strokeColor=#82b366;labelBackgroundColor=none;" parent="1" vertex="1">
          <mxGeometry x="130" y="290" width="100" height="80" as="geometry" />
        </mxCell>
        <mxCell id="W3DtqNC9jMBDCoc1uVoA-2" value="&lt;span style=&quot;color: rgb(36, 36, 36); font-family: &amp;quot;Yu Gothic&amp;quot;, &amp;quot;Meiryo UI&amp;quot;, &amp;quot;MS UI Gothic&amp;quot;, &amp;quot;MS PGothic&amp;quot;, &amp;quot;ＭＳ Ｐゴシック&amp;quot;, &amp;quot;MS Gothic&amp;quot;, &amp;quot;ＭＳ ゴシック&amp;quot;, Calibri, &amp;quot;sans-serif&amp;quot;, &amp;quot;Mongolian Baiti&amp;quot;, &amp;quot;Microsoft Yi Baiti&amp;quot;, &amp;quot;Javanese Text&amp;quot;; font-size: 14.6667px; text-align: left; white-space-collapse: preserve;&quot;&gt;貸出一覧に書名を表示&lt;/span&gt;" style="ellipse;shape=umlControl;whiteSpace=wrap;html=1;fillColor=#f8cecc;strokeColor=#b85450;labelBackgroundColor=none;" parent="1" vertex="1">
          <mxGeometry x="440" y="300" width="90" height="100" as="geometry" />
        </mxCell>
        <mxCell id="W3DtqNC9jMBDCoc1uVoA-3" value="" style="endArrow=classic;html=1;rounded=0;" parent="1" source="ODEPzS9x_N9bXQIloqpd-17" target="ODEPzS9x_N9bXQIloqpd-19" edge="1">
          <mxGeometry width="50" height="50" relative="1" as="geometry">
            <mxPoint x="470" y="210" as="sourcePoint" />
            <mxPoint x="520" y="160" as="targetPoint" />
          </mxGeometry>
        </mxCell>
        <mxCell id="W3DtqNC9jMBDCoc1uVoA-4" value="" style="endArrow=classic;html=1;rounded=0;" parent="1" source="ODEPzS9x_N9bXQIloqpd-19" target="ODEPzS9x_N9bXQIloqpd-18" edge="1">
          <mxGeometry width="50" height="50" relative="1" as="geometry">
            <mxPoint x="390" y="200" as="sourcePoint" />
            <mxPoint x="440" y="150" as="targetPoint" />
          </mxGeometry>
        </mxCell>
        <mxCell id="W3DtqNC9jMBDCoc1uVoA-5" value="" style="endArrow=classic;html=1;rounded=0;" parent="1" source="ODEPzS9x_N9bXQIloqpd-18" target="ODEPzS9x_N9bXQIloqpd-20" edge="1">
          <mxGeometry width="50" height="50" relative="1" as="geometry">
            <mxPoint x="510" y="220" as="sourcePoint" />
            <mxPoint x="560" y="170" as="targetPoint" />
          </mxGeometry>
        </mxCell>
        <mxCell id="W3DtqNC9jMBDCoc1uVoA-6" value="" style="endArrow=classic;html=1;rounded=0;" parent="1" source="ODEPzS9x_N9bXQIloqpd-20" target="W3DtqNC9jMBDCoc1uVoA-1" edge="1">
          <mxGeometry width="50" height="50" relative="1" as="geometry">
            <mxPoint x="550" y="220" as="sourcePoint" />
            <mxPoint x="600" y="170" as="targetPoint" />
          </mxGeometry>
        </mxCell>
        <mxCell id="W3DtqNC9jMBDCoc1uVoA-8" value="&lt;span style=&quot;color: rgb(36, 36, 36); font-family: &amp;quot;Yu Gothic&amp;quot;, &amp;quot;Meiryo UI&amp;quot;, &amp;quot;MS UI Gothic&amp;quot;, &amp;quot;MS PGothic&amp;quot;, &amp;quot;ＭＳ Ｐゴシック&amp;quot;, &amp;quot;MS Gothic&amp;quot;, &amp;quot;ＭＳ ゴシック&amp;quot;, Calibri, &amp;quot;sans-serif&amp;quot;, &amp;quot;Mongolian Baiti&amp;quot;, &amp;quot;Microsoft Yi Baiti&amp;quot;, &amp;quot;Javanese Text&amp;quot;; font-size: 14.6667px; text-align: left; white-space-collapse: preserve;&quot;&gt;貸出完了画面を表示&lt;/span&gt;" style="ellipse;shape=umlControl;whiteSpace=wrap;html=1;fillColor=#f8cecc;strokeColor=#b85450;labelBackgroundColor=none;" parent="1" vertex="1">
          <mxGeometry x="450" y="400" width="70" height="80" as="geometry" />
        </mxCell>
        <mxCell id="W3DtqNC9jMBDCoc1uVoA-9" value="&lt;span style=&quot;color: rgb(36, 36, 36); font-family: &amp;quot;Yu Gothic&amp;quot;, &amp;quot;Meiryo UI&amp;quot;, &amp;quot;MS UI Gothic&amp;quot;, &amp;quot;MS PGothic&amp;quot;, &amp;quot;ＭＳ Ｐゴシック&amp;quot;, &amp;quot;MS Gothic&amp;quot;, &amp;quot;ＭＳ ゴシック&amp;quot;, Calibri, &amp;quot;sans-serif&amp;quot;, &amp;quot;Mongolian Baiti&amp;quot;, &amp;quot;Microsoft Yi Baiti&amp;quot;, &amp;quot;Javanese Text&amp;quot;; font-size: 14.6667px; text-align: left; white-space-collapse: preserve;&quot;&gt;エラーメッセージを表示&lt;/span&gt;" style="ellipse;shape=umlControl;whiteSpace=wrap;html=1;fillColor=#f8cecc;strokeColor=#b85450;labelBackgroundColor=none;" parent="1" vertex="1">
          <mxGeometry x="430" y="80" width="70" height="80" as="geometry" />
        </mxCell>
        <mxCell id="W3DtqNC9jMBDCoc1uVoA-18" value="&lt;div&gt;&lt;span style=&quot;color: rgb(36, 36, 36); font-family: &amp;quot;Yu Gothic&amp;quot;, &amp;quot;Meiryo UI&amp;quot;, &amp;quot;MS UI Gothic&amp;quot;, &amp;quot;MS PGothic&amp;quot;, &amp;quot;ＭＳ Ｐゴシック&amp;quot;, &amp;quot;MS Gothic&amp;quot;, &amp;quot;ＭＳ ゴシック&amp;quot;, Calibri, &amp;quot;sans-serif&amp;quot;, &amp;quot;Mongolian Baiti&amp;quot;, &amp;quot;Microsoft Yi Baiti&amp;quot;, &amp;quot;Javanese Text&amp;quot;; white-space-collapse: preserve; background-color: rgb(255, 255, 255);&quot;&gt;&lt;font style=&quot;font-size: 10px;&quot;&gt;会員番号が未入力または未登録の場合&lt;/font&gt;&lt;/span&gt;&lt;/div&gt;" style="text;html=1;align=center;verticalAlign=middle;whiteSpace=wrap;rounded=0;" parent="1" vertex="1">
          <mxGeometry x="290" y="170" width="60" height="30" as="geometry" />
        </mxCell>
        <mxCell id="W3DtqNC9jMBDCoc1uVoA-21" value="" style="endArrow=classic;startArrow=classic;html=1;rounded=0;" parent="1" source="ODEPzS9x_N9bXQIloqpd-18" target="W3DtqNC9jMBDCoc1uVoA-9" edge="1">
          <mxGeometry width="50" height="50" relative="1" as="geometry">
            <mxPoint x="530" y="350" as="sourcePoint" />
            <mxPoint x="580" y="300" as="targetPoint" />
          </mxGeometry>
        </mxCell>
        <mxCell id="W3DtqNC9jMBDCoc1uVoA-24" value="&lt;span style=&quot;color: rgb(36, 36, 36); font-family: &amp;quot;Yu Gothic&amp;quot;, &amp;quot;Meiryo UI&amp;quot;, &amp;quot;MS UI Gothic&amp;quot;, &amp;quot;MS PGothic&amp;quot;, &amp;quot;ＭＳ Ｐゴシック&amp;quot;, &amp;quot;MS Gothic&amp;quot;, &amp;quot;ＭＳ ゴシック&amp;quot;, Calibri, &amp;quot;sans-serif&amp;quot;, &amp;quot;Mongolian Baiti&amp;quot;, &amp;quot;Microsoft Yi Baiti&amp;quot;, &amp;quot;Javanese Text&amp;quot;; font-size: 14.6667px; text-align: left; white-space-collapse: preserve;&quot;&gt;エラーメッセージを表示&lt;/span&gt;" style="ellipse;shape=umlControl;whiteSpace=wrap;html=1;fillColor=#f8cecc;strokeColor=#b85450;labelBackgroundColor=none;" parent="1" vertex="1">
          <mxGeometry x="350" y="260" width="70" height="80" as="geometry" />
        </mxCell>
        <mxCell id="W3DtqNC9jMBDCoc1uVoA-25" value="" style="endArrow=classic;startArrow=classic;html=1;rounded=0;" parent="1" source="W3DtqNC9jMBDCoc1uVoA-1" target="W3DtqNC9jMBDCoc1uVoA-24" edge="1">
          <mxGeometry width="50" height="50" relative="1" as="geometry">
            <mxPoint x="480" y="371" as="sourcePoint" />
            <mxPoint x="580" y="360" as="targetPoint" />
          </mxGeometry>
        </mxCell>
        <mxCell id="W3DtqNC9jMBDCoc1uVoA-26" value="&lt;span style=&quot;color: rgb(36, 36, 36); font-family: &amp;quot;Yu Gothic&amp;quot;, &amp;quot;Meiryo UI&amp;quot;, &amp;quot;MS UI Gothic&amp;quot;, &amp;quot;MS PGothic&amp;quot;, &amp;quot;ＭＳ Ｐゴシック&amp;quot;, &amp;quot;MS Gothic&amp;quot;, &amp;quot;ＭＳ ゴシック&amp;quot;, Calibri, &amp;quot;sans-serif&amp;quot;, &amp;quot;Mongolian Baiti&amp;quot;, &amp;quot;Microsoft Yi Baiti&amp;quot;, &amp;quot;Javanese Text&amp;quot;; text-align: left; white-space-collapse: preserve; background-color: rgb(255, 255, 255);&quot;&gt;&lt;font style=&quot;font-size: 10px;&quot;&gt;管理番号が未入力、または未登録の場合&lt;/font&gt;&lt;/span&gt;" style="text;html=1;align=center;verticalAlign=middle;whiteSpace=wrap;rounded=0;" parent="1" vertex="1">
          <mxGeometry x="280" y="290" width="60" height="30" as="geometry" />
        </mxCell>
        <mxCell id="W3DtqNC9jMBDCoc1uVoA-28" value="&lt;span style=&quot;font-family: &amp;quot;Yu Gothic&amp;quot;, &amp;quot;Meiryo UI&amp;quot;, &amp;quot;MS UI Gothic&amp;quot;, &amp;quot;MS PGothic&amp;quot;, &amp;quot;ＭＳ Ｐゴシック&amp;quot;, &amp;quot;MS Gothic&amp;quot;, &amp;quot;ＭＳ ゴシック&amp;quot;, Calibri, &amp;quot;sans-serif&amp;quot;, &amp;quot;Mongolian Baiti&amp;quot;, &amp;quot;Microsoft Yi Baiti&amp;quot;, &amp;quot;Javanese Text&amp;quot;; font-size: 14.6667px; text-align: left; white-space-collapse: preserve;&quot;&gt;貸出を押下&lt;/span&gt;" style="shape=umlBoundary;whiteSpace=wrap;html=1;fillColor=#d5e8d4;strokeColor=#82b366;fontColor=default;labelBackgroundColor=none;" parent="1" vertex="1">
          <mxGeometry x="130" y="390" width="100" height="80" as="geometry" />
        </mxCell>
        <mxCell id="W3DtqNC9jMBDCoc1uVoA-29" value="" style="endArrow=classic;html=1;rounded=0;" parent="1" source="W3DtqNC9jMBDCoc1uVoA-2" target="W3DtqNC9jMBDCoc1uVoA-28" edge="1">
          <mxGeometry width="50" height="50" relative="1" as="geometry">
            <mxPoint x="260" y="490" as="sourcePoint" />
            <mxPoint x="348" y="555" as="targetPoint" />
          </mxGeometry>
        </mxCell>
        <mxCell id="W3DtqNC9jMBDCoc1uVoA-31" value="" style="endArrow=classic;html=1;rounded=0;" parent="1" source="W3DtqNC9jMBDCoc1uVoA-28" target="W3DtqNC9jMBDCoc1uVoA-8" edge="1">
          <mxGeometry width="50" height="50" relative="1" as="geometry">
            <mxPoint x="610" y="320" as="sourcePoint" />
            <mxPoint x="530" y="324" as="targetPoint" />
          </mxGeometry>
        </mxCell>
        <mxCell id="W3DtqNC9jMBDCoc1uVoA-32" value="&lt;span style=&quot;color: rgb(36, 36, 36); font-family: &amp;quot;Yu Gothic&amp;quot;, &amp;quot;Meiryo UI&amp;quot;, &amp;quot;MS UI Gothic&amp;quot;, &amp;quot;MS PGothic&amp;quot;, &amp;quot;ＭＳ Ｐゴシック&amp;quot;, &amp;quot;MS Gothic&amp;quot;, &amp;quot;ＭＳ ゴシック&amp;quot;, Calibri, &amp;quot;sans-serif&amp;quot;, &amp;quot;Mongolian Baiti&amp;quot;, &amp;quot;Microsoft Yi Baiti&amp;quot;, &amp;quot;Javanese Text&amp;quot;; font-size: 14.6667px; text-align: left; white-space-collapse: preserve;&quot;&gt;DBに保存&lt;/span&gt;" style="ellipse;shape=umlEntity;whiteSpace=wrap;html=1;fillColor=#dae8fc;strokeColor=#6c8ebf;labelBackgroundColor=none;" parent="1" vertex="1">
          <mxGeometry x="620" y="400" width="80" height="80" as="geometry" />
        </mxCell>
        <mxCell id="W3DtqNC9jMBDCoc1uVoA-33" value="" style="endArrow=classic;html=1;rounded=0;" parent="1" source="W3DtqNC9jMBDCoc1uVoA-8" target="W3DtqNC9jMBDCoc1uVoA-32" edge="1">
          <mxGeometry width="50" height="50" relative="1" as="geometry">
            <mxPoint x="270" y="470" as="sourcePoint" />
            <mxPoint x="490" y="477" as="targetPoint" />
          </mxGeometry>
        </mxCell>
        <mxCell id="ItUBz1ao2A4OI1pi3mFI-1" value="&lt;span style=&quot;color: rgb(36, 36, 36); font-family: &amp;quot;Yu Gothic&amp;quot;, &amp;quot;Meiryo UI&amp;quot;, &amp;quot;MS UI Gothic&amp;quot;, &amp;quot;MS PGothic&amp;quot;, &amp;quot;ＭＳ Ｐゴシック&amp;quot;, &amp;quot;MS Gothic&amp;quot;, &amp;quot;ＭＳ ゴシック&amp;quot;, Calibri, &amp;quot;sans-serif&amp;quot;, &amp;quot;Mongolian Baiti&amp;quot;, &amp;quot;Microsoft Yi Baiti&amp;quot;, &amp;quot;Javanese Text&amp;quot;; font-size: 14.6667px; text-align: left; white-space-collapse: preserve;&quot;&gt;エラーメッセージを表示&lt;/span&gt;" style="ellipse;shape=umlControl;whiteSpace=wrap;html=1;fillColor=#f8cecc;strokeColor=#b85450;labelBackgroundColor=none;" vertex="1" parent="1">
          <mxGeometry x="450" y="520" width="70" height="80" as="geometry" />
        </mxCell>
        <mxCell id="ItUBz1ao2A4OI1pi3mFI-2" value="" style="endArrow=classic;html=1;rounded=0;" edge="1" parent="1" source="W3DtqNC9jMBDCoc1uVoA-8" target="ItUBz1ao2A4OI1pi3mFI-1">
          <mxGeometry width="50" height="50" relative="1" as="geometry">
            <mxPoint x="150" y="610" as="sourcePoint" />
            <mxPoint x="200" y="560" as="targetPoint" />
          </mxGeometry>
        </mxCell>
        <mxCell id="ItUBz1ao2A4OI1pi3mFI-3" value="&lt;span style=&quot;color: rgb(36, 36, 36); font-family: &amp;quot;Yu Gothic&amp;quot;, &amp;quot;Meiryo UI&amp;quot;, &amp;quot;MS UI Gothic&amp;quot;, &amp;quot;MS PGothic&amp;quot;, &amp;quot;ＭＳ Ｐゴシック&amp;quot;, &amp;quot;MS Gothic&amp;quot;, &amp;quot;ＭＳ ゴシック&amp;quot;, Calibri, &amp;quot;sans-serif&amp;quot;, &amp;quot;Mongolian Baiti&amp;quot;, &amp;quot;Microsoft Yi Baiti&amp;quot;, &amp;quot;Javanese Text&amp;quot;; text-align: left; white-space-collapse: preserve; background-color: rgb(255, 255, 255);&quot;&gt;&lt;font style=&quot;font-size: 10px;&quot;&gt;一冊も確定していない場合&lt;/font&gt;&lt;/span&gt;" style="text;html=1;align=center;verticalAlign=middle;whiteSpace=wrap;rounded=0;" vertex="1" parent="1">
          <mxGeometry x="400" y="480" width="60" height="30" as="geometry" />
        </mxCell>
        <mxCell id="ItUBz1ao2A4OI1pi3mFI-4" value="" style="endArrow=classic;startArrow=classic;html=1;rounded=0;" edge="1" parent="1" source="W3DtqNC9jMBDCoc1uVoA-1" target="W3DtqNC9jMBDCoc1uVoA-2">
          <mxGeometry width="50" height="50" relative="1" as="geometry">
            <mxPoint x="290" y="510" as="sourcePoint" />
            <mxPoint x="340" y="460" as="targetPoint" />
          </mxGeometry>
        </mxCell>
      </root>
    </mxGraphModel>
  </diagram>
</mxfile>
